<?xml version="1.0" encoding="UTF-8" standalone="no"?>
<!DOCTYPE svg PUBLIC "-//W3C//DTD SVG 1.1//EN"
 "http://www.w3.org/Graphics/SVG/1.1/DTD/svg11.dtd">
<!-- Generated by graphviz version 10.0.1 (20240210.2158)
 -->
<!-- Pages: 1 -->
<svg width="178pt" height="260pt"
 viewBox="0.00 0.00 178.18 260.00" xmlns="http://www.w3.org/2000/svg" xmlns:xlink="http://www.w3.org/1999/xlink">
<g id="graph0" class="graph" transform="scale(1 1) rotate(0) translate(4 256)">
<polygon fill="white" stroke="none" points="-4,4 -4,-256 174.18,-256 174.18,4 -4,4"/>
<!-- 0 -->
<g id="node1" class="node">
<title>0</title>
<ellipse fill="none" stroke="black" cx="75.09" cy="-234" rx="59.05" ry="18"/>
<text text-anchor="middle" x="75.09" y="-228.57" font-family="Times New Roman,serif" font-size="14.00">&quot;entry #bb0&quot;</text>
</g>
<!-- 1 -->
<g id="node2" class="node">
<title>1</title>
<ellipse fill="none" stroke="black" cx="75.09" cy="-162" rx="57.55" ry="18"/>
<text text-anchor="middle" x="75.09" y="-156.57" font-family="Times New Roman,serif" font-size="14.00">&quot;loop #bb1&quot;</text>
</g>
<!-- 0&#45;&gt;1 -->
<g id="edge1" class="edge">
<title>0&#45;&gt;1</title>
<path fill="none" stroke="black" d="M75.09,-215.7C75.09,-208.41 75.09,-199.73 75.09,-191.54"/>
<polygon fill="black" stroke="black" points="78.59,-191.62 75.09,-181.62 71.59,-191.62 78.59,-191.62"/>
</g>
<!-- 2 -->
<g id="node3" class="node">
<title>2</title>
<ellipse fill="none" stroke="black" cx="38.09" cy="-18" rx="38.09" ry="18"/>
<text text-anchor="middle" x="38.09" y="-12.57" font-family="Times New Roman,serif" font-size="14.00">&quot;#bb2&quot;</text>
</g>
<!-- 1&#45;&gt;2 -->
<g id="edge2" class="edge">
<title>1&#45;&gt;2</title>
<path fill="none" stroke="black" d="M68.74,-143.97C65.04,-133.66 60.45,-120.18 57.09,-108 51.57,-87.95 46.7,-64.99 43.27,-47.41"/>
<polygon fill="black" stroke="black" points="46.73,-46.86 41.43,-37.69 39.86,-48.17 46.73,-46.86"/>
</g>
<!-- 3 -->
<g id="node4" class="node">
<title>3</title>
<ellipse fill="none" stroke="black" cx="112.09" cy="-90" rx="45.57" ry="18"/>
<text text-anchor="middle" x="112.09" y="-84.58" font-family="Times New Roman,serif" font-size="14.00">&quot;if #bb3&quot;</text>
</g>
<!-- 1&#45;&gt;3 -->
<g id="edge3" class="edge">
<title>1&#45;&gt;3</title>
<path fill="none" stroke="black" d="M84.05,-144.05C88.23,-136.14 93.3,-126.54 97.98,-117.69"/>
<polygon fill="black" stroke="black" points="100.93,-119.6 102.51,-109.13 94.74,-116.33 100.93,-119.6"/>
</g>
<!-- 3&#45;&gt;2 -->
<g id="edge5" class="edge">
<title>3&#45;&gt;2</title>
<path fill="none" stroke="black" d="M95.3,-73.12C85.67,-64.01 73.42,-52.42 62.72,-42.3"/>
<polygon fill="black" stroke="black" points="65.33,-39.95 55.66,-35.62 60.52,-45.03 65.33,-39.95"/>
</g>
<!-- 4 -->
<g id="node5" class="node">
<title>4</title>
<ellipse fill="none" stroke="black" cx="132.09" cy="-18" rx="38.09" ry="18"/>
<text text-anchor="middle" x="132.09" y="-12.57" font-family="Times New Roman,serif" font-size="14.00">&quot;#bb4&quot;</text>
</g>
<!-- 3&#45;&gt;4 -->
<g id="edge4" class="edge">
<title>3&#45;&gt;4</title>
<path fill="none" stroke="black" d="M117.03,-71.7C119.17,-64.24 121.71,-55.32 124.1,-46.97"/>
<polygon fill="black" stroke="black" points="127.41,-48.14 126.79,-37.56 120.67,-46.21 127.41,-48.14"/>
</g>
</g>
</svg>
